<svg width="48" height="48" viewBox="0 0 48 48" fill="none" xmlns="http://www.w3.org/2000/svg">
<g clip-path="url(#clip0_53_212)">
<path d="M48 24C48 10.7452 37.2548 0 24 0C10.7452 0 0 10.7452 0 24C0 37.2548 10.7452 48 24 48C37.2548 48 48 37.2548 48 24Z" fill="#FCF2D8"/>
<path d="M18.8077 38H27.6924C29.631 38 30.6003 38 31.3408 37.6227C31.9921 37.2909 32.5217 36.7613 32.8535 36.11C33.2308 35.3695 33.2308 34.4002 33.2308 32.4616V24.1403V24.1402C33.2308 23.2936 33.2308 22.8703 33.1352 22.4719C33.0504 22.1187 32.9105 21.7811 32.7207 21.4713C32.5067 21.122 32.2073 20.8227 31.6086 20.224L27.9299 16.5453L27.9299 16.5453C27.3312 15.9466 27.0319 15.6473 26.6826 15.4332C26.3729 15.2434 26.0352 15.1035 25.682 15.0187C25.2836 14.9231 24.8603 14.9231 24.0136 14.9231H18.8077C18.2719 14.9231 18.0039 14.9231 17.779 14.9527C16.2257 15.1572 15.0034 16.3795 14.7989 17.9328C14.7693 18.1578 14.7693 18.4257 14.7693 18.9616V33.9616C14.7693 34.4974 14.7693 34.7654 14.7989 34.9903C15.0034 36.5436 16.2257 37.7659 17.779 37.9704C18.0039 38 18.2719 38 18.8077 38Z" fill="#F79009" stroke="#F79009" stroke-width="2" stroke-linecap="round" stroke-linejoin="round"/>
<path d="M33.8077 8L32.4053 11.7899L28.6154 13.1923L32.4053 14.5947L33.8077 18.3846L35.2101 14.5947L39 13.1923L35.2101 11.7899L33.8077 8Z" fill="#F79009"/>
<path d="M25.7307 30.4999L28.6153 27.6153L25.7307 24.7307M21.1153 24.7307L18.2307 27.6153L21.1153 30.4999" stroke="#FCF2D8" stroke-width="2" stroke-linecap="round" stroke-linejoin="round"/>
</g>
<defs>
<clipPath id="clip0_53_212">
<rect width="48" height="48" fill="white"/>
</clipPath>
</defs>
</svg>
