<?xml version="1.0" encoding="UTF-8"?>
<svg version="1.1" xmlns="http://www.w3.org/2000/svg" width="40" height="40">
<path d="M0 0 C13.2 0 26.4 0 40 0 C40 13.2 40 26.4 40 40 C26.8 40 13.6 40 0 40 C0 26.8 0 13.6 0 0 Z " fill="#FBEFD3" transform="translate(0,0)"/>
<path d="M0 0 C2.95511582 1.5476793 4.92344031 3.41319993 7 6 C7.5465625 6.55171875 8.093125 7.1034375 8.65625 7.671875 C10.663483 11.14952287 10.43461475 14.59854569 10.375 18.5 C10.38660156 19.25925781 10.39820312 20.01851562 10.41015625 20.80078125 C10.38696347 25.21513966 10.14426861 27.84362974 7 31 C4.76342773 31.50170898 4.76342773 31.50170898 2.18359375 31.49609375 C1.25482422 31.49673828 0.32605469 31.49738281 -0.63085938 31.49804688 C-1.59830078 31.47806641 -2.56574219 31.45808594 -3.5625 31.4375 C-5.01946289 31.44813477 -5.01946289 31.44813477 -6.50585938 31.45898438 C-11.85853124 31.41062806 -11.85853124 31.41062806 -14 31 C-17.18133234 26.22800148 -16.32816905 21.10952168 -16.3125 15.5 C-16.32861328 14.34628906 -16.34472656 13.19257813 -16.36132812 12.00390625 C-16.36197266 10.89917969 -16.36261719 9.79445313 -16.36328125 8.65625 C-16.36626221 7.64369141 -16.36924316 6.63113281 -16.37231445 5.58789062 C-16 3 -16 3 -14.65795898 1.17797852 C-10.62824418 -1.68513059 -4.64383929 -0.69937339 0 0 Z " fill="#F7930F" transform="translate(23,7)"/>
<path d="M0 0 C0.66 0 1.32 0 2 0 C2.33 0.99 2.66 1.98 3 3 C4.49985609 4.66710346 4.49985609 4.66710346 6 6 C4.68 6.33 3.36 6.66 2 7 C2 7.99 2 8.98 2 10 C1.34 10 0.68 10 0 10 C0 9.01 0 8.02 0 7 C-1.65 6.67 -3.3 6.34 -5 6 C-4 4 -4 4 -1 3 C-0.67 2.01 -0.34 1.02 0 0 Z " fill="#F79719" transform="translate(31,1)"/>
<path d="M0 0 C2.62187494 1.04874998 3.79371361 1.64931313 5.25 4.125 C5.4975 4.74375 5.745 5.3625 6 6 C4.71034824 7.37562854 3.37310707 8.70766393 2 10 C1.34 10 0.68 10 0 10 C0.185625 9.0925 0.37125 8.185 0.5625 7.25 C0.95734621 4.31685676 0.94691572 2.7355343 0 0 Z " fill="#FAE1B4" transform="translate(21,19)"/>
<path d="M0 0 C-0.185625 0.7425 -0.37125 1.485 -0.5625 2.25 C-0.99203108 4.94990963 -0.85122974 6.44631077 0 9 C-2.62187494 7.95125002 -3.79371361 7.35068687 -5.25 4.875 C-5.4975 4.25625 -5.745 3.6375 -6 3 C-2.25 0 -2.25 0 0 0 Z " fill="#FBE7C0" transform="translate(17,20)"/>
</svg>
